<?xml version="1.0" standalone="no"?>
<!DOCTYPE svg PUBLIC "-//W3C//DTD SVG 20010904//EN"
 "http://www.w3.org/TR/2001/REC-SVG-20010904/DTD/svg10.dtd">
<svg version="1.0" xmlns="http://www.w3.org/2000/svg"
 width="500.000000pt" height="500.000000pt" viewBox="0 0 500.000000 500.000000"
 preserveAspectRatio="xMidYMid meet">

<g transform="translate(0.000000,500.000000) scale(0.100000,-0.100000)"
fill="#000000" stroke="none">
<path d="M2820 3175 c-163 -45 -255 -176 -253 -360 1 -102 28 -176 89 -244
150 -167 437 -141 551 48 86 144 63 358 -50 469 -85 83 -223 118 -337 87z
m180 -203 c93 -46 114 -178 43 -263 -52 -61 -136 -76 -213 -36 -64 31 -92 84
-87 160 4 64 23 98 77 135 42 28 129 30 180 4z"/>
<path d="M1770 2840 l0 -320 90 0 90 0 2 163 3 162 59 -82 60 -83 62 0 62 0
59 83 58 82 3 -162 2 -163 90 0 90 0 0 320 0 320 -74 0 -74 0 -107 -150 c-59
-82 -108 -150 -110 -150 -2 0 -52 68 -110 150 l-106 150 -75 0 -74 0 0 -320z"/>
<path d="M1965 2444 c-107 -39 -162 -160 -120 -262 31 -72 82 -108 196 -137
89 -22 118 -35 134 -59 20 -28 19 -42 -5 -66 -13 -13 -33 -20 -61 -20 -52 0
-73 12 -89 50 l-12 30 -91 0 -90 0 7 -46 c15 -113 122 -184 276 -184 165 0
270 81 270 210 0 115 -63 172 -245 222 -91 25 -115 41 -115 77 0 38 24 56 75
56 47 0 85 -25 85 -57 0 -16 9 -18 96 -18 l96 0 -7 33 c-17 82 -84 155 -163
177 -53 14 -190 11 -237 -6z"/>
<path d="M2530 2070 l0 -320 95 0 95 0 0 110 0 110 265 0 265 0 0 100 0 100
-265 0 -265 0 0 110 0 110 -95 0 -95 0 0 -320z"/>
</g>
</svg>
